<svg version="1.2" baseProfile="tiny-ps" xmlns="http://www.w3.org/2000/svg" viewBox="0 0 1564 1615" width="1564" height="1615">
	<title>2020-annual-review-en-1-pdf-svg-svg</title>
	<defs>
		<clipPath clipPathUnits="userSpaceOnUse" id="cp1">
			<path d="M-744.98 -599.78L14873.8 -599.78L14873.8 18692.03L-744.98 18692.03L-744.98 -599.78Z" />
		</clipPath>
	</defs>
	<style>
		tspan { white-space:pre }
		.shp0 { fill: #ffffff } 
	</style>
	<g id="Clip-Path: Clip-Path: Page 1" clip-path="url(#cp1)">
		<g id="Clip-Path: Page 1">
			<g id="Page 1">
				<path id="Path 7" fill-rule="evenodd" class="shp0" d="M924.11 788.31C927.64 789.38 932.11 789.89 938.23 789.89C972.42 789.89 999.93 770.41 1033.05 744.22L1034.07 754.94C1034.33 757.7 1034.62 760.46 1034.62 763.44C1034.62 769.86 1032.63 775.64 1024.38 781.89C1001.33 799.84 964.29 819.48 928.58 819.48C918.63 819.48 910.89 817.78 902.13 815.27C839.54 853.37 742.25 869.61 639.23 869.61L619.33 869.61L621.54 860.17C622.98 854.18 625.07 849.71 627.96 847.2C630.98 844.74 634 843.29 642.5 843.29C660.95 843.29 722.1 841.21 759.43 832.28C749.18 806.51 730.73 774.2 702.33 774.2C684.64 774.2 658.62 784.4 629.53 796.82C596.28 811.1 562.9 827.73 551.38 833.98L536.2 813.7C547.47 806.26 583.06 786.61 621.79 769.6C654.92 754.94 683.62 742.01 708.37 742.01C744.21 742.01 778.14 783.34 791.62 824.97C814.41 819.61 832.35 813.7 846.98 808.09C905.11 785.85 900.13 752.85 955.28 695.41C979.22 670.41 1007.37 645.66 1035.77 633.24C1041.55 637.03 1052.52 644.21 1060.26 648.93C987.21 687.41 957.49 734.78 924.11 788.31ZM963.78 586.64C968.76 591.36 976.75 596.34 983.94 601.82L970.08 619.77C917.44 687.54 872.66 745.41 835.76 745.41C801.31 745.41 788.35 704.8 787.71 674.57C735.07 679.8 685.45 697.36 634 728.23L627.32 702.85C684.13 672.36 735.96 647.74 818.58 639.92C820.28 671.43 818.07 711.48 841.5 711.48C862.97 711.48 909.83 656.12 963.78 586.64ZM697.1 281.14L719.34 276.46L699.05 326.29L746.46 347C713.08 366.9 679.66 408.23 667.25 452.24C659.89 478.39 658.49 507.6 657.68 526.05L657.43 532.43C657.17 535.45 655.21 537.02 652.45 537.02C649.43 537.02 648.24 535.19 647.73 533.24C643.01 515.29 639.74 495.14 639.74 473.41C639.74 413.08 681.36 362.18 700.37 350.28L670.65 338.24L683.36 307.84L678.09 309.84C671.41 312.31 664.1 314.81 653.77 314.81C639.48 314.81 629.79 310.09 613.29 310.09C596.28 310.09 579.15 316.09 567.37 328C551.38 343.73 546.92 360.74 545.47 377.62C544.96 382.85 544.96 388.08 544.7 393.6C543.51 426.05 537.22 436.51 521.53 460.74C504.27 487.57 477.65 522.78 458.69 551.44C452.65 548.16 435.26 538.72 430.03 536.26C446.65 506.79 468.13 478.94 483.82 457.72C503.08 431.91 509.75 423.03 512.09 387.44C514.05 360.74 515.75 330.76 544.96 302.87C560.95 287.43 584.38 279.18 606.1 279.18C618.26 279.18 626.77 280.88 634.76 282.88C645.26 285.35 654.02 286.41 661.76 286.41C673.67 286.41 683.62 283.9 697.1 281.14ZM856.8 83.93C863.48 86.95 867.94 91.37 867.94 96.09C867.94 101.07 862.97 106.04 855.49 112.08C847.79 118.33 837.84 124.24 829.97 124.24C820.15 124.24 817.56 115.06 817.56 107.36C817.56 97.67 822.4 80.4 840.31 80.4C846.47 80.4 852.25 81.68 856.8 83.93ZM858.25 455.64L717.51 455.64L730.73 430.21L847.79 430.21L858.25 455.64ZM550.74 202.09C542.2 202.09 537.77 196.86 537.77 187.85C537.77 175.94 544.96 162.98 558.69 162.98C564.86 162.98 571.92 165.44 577.19 170.42C580.29 173.18 581.61 176.2 581.61 179.22C581.61 185.89 575.32 192.14 567.88 196.61C562.1 199.88 555.97 202.09 550.74 202.09ZM1268.57 600.63C1236.6 567.13 1210.7 531.28 1189.74 495.82C1182.81 484.17 1180.17 479.45 1180.17 475.67C1180.17 473.16 1181.74 470.95 1185.02 470.95C1187.27 470.95 1188.97 472.09 1190.93 474.6C1219.46 510.57 1252.07 546.46 1283.75 580.35C1324.19 623.29 1367.39 667.9 1407.74 704.55C1409.31 706 1409.95 707.31 1409.95 708.76C1409.95 710.84 1407.99 713.61 1405.23 713.61C1403.53 713.61 1402.21 712.8 1400.26 711.48L1386.78 702.08C1343.58 671.43 1303.01 637.28 1268.57 600.63ZM1162.27 1601.5C1158.87 1597.42 1156.74 1592.06 1156.74 1585L1156.74 1224.44C1156.74 1217.21 1158.87 1211.98 1162.27 1207.94C1166.31 1202.97 1172.22 1199.82 1180.72 1199.82L1213.42 1199.82C1222.1 1199.82 1227.84 1202.97 1231.92 1207.94C1235.32 1211.98 1237.4 1217.21 1237.4 1224.44L1237.4 1585C1237.4 1592.06 1235.32 1597.42 1231.92 1601.5C1227.84 1606.48 1222.1 1609.45 1213.42 1609.45L1180.72 1609.45C1172.22 1609.45 1166.31 1606.48 1162.27 1601.5ZM643.95 348.96C643.95 360.74 624.05 374.47 614.1 374.47C607.04 374.47 602.57 367.67 602.57 357.72C602.57 355 602.83 351.72 603.89 348.45C606.1 341.22 610.82 334.29 622.47 334.29C627.7 334.29 633.49 335.73 638.04 339.01C642.25 341.77 643.95 345.3 643.95 348.96ZM274.62 687.16C299.74 687.16 333.25 684.65 347.67 679.8L342.44 668.71C328.4 638.98 318.45 626.82 297.79 626.82C284.31 626.82 274.62 630.48 261.39 634.52C259.56 635.07 255.91 636.77 252.38 636.77C244.38 636.77 240.98 630.74 239.15 622.23L238.09 617C261.65 606.8 284.05 597.36 306.93 597.36C331.98 597.36 346.22 609.82 359.44 632.95C370.58 652.46 379.6 674.57 391.25 692.13C418.76 733.76 451.88 749.71 489.05 749.71C522.3 749.71 560.14 736.23 596.41 715.82L603.34 740.95C566.18 761.36 527.44 775.34 489.05 775.34C444.14 775.34 397.54 756 363.65 705.61C350.43 709.01 327.51 712.8 296.22 712.8C283.76 712.8 276.57 712.54 271.6 710.08C267.56 708.08 265.6 704.04 264.79 699.06L262.84 687.16L274.62 687.16ZM1537.47 1483.04L1345.15 1483.04C1347.11 1517.44 1373.81 1548.86 1415.18 1548.86C1442.82 1548.86 1461.4 1538.91 1474.37 1519.95C1478.83 1513.27 1484.83 1510 1493.76 1510L1538.11 1510C1543.89 1510 1547.16 1511.7 1549.37 1514.46C1551.63 1516.93 1552.39 1520.2 1552.39 1524.12C1552.39 1535.38 1543.38 1553.84 1531.98 1567.06C1506.05 1597.55 1460.89 1614.98 1414.93 1614.98C1322.61 1614.98 1265.04 1541.17 1265.04 1457.11C1265.04 1378.32 1318.7 1303.74 1414.42 1303.74C1466.37 1303.74 1503.84 1323.25 1528.16 1352.17C1551.88 1380.83 1563.11 1418.24 1563.11 1454.38C1563.11 1466.16 1560.9 1472.58 1556.18 1477C1552.14 1481.09 1545.97 1483.04 1537.47 1483.04ZM1483.51 1424.41C1479.98 1390.52 1453.15 1365.14 1414.54 1365.14C1375.25 1365.14 1349.32 1390.52 1345.66 1424.41L1483.51 1424.41ZM1286.22 374.21C1478.83 661.35 1563.11 869.87 1563.11 920.51C1563.11 931.26 1558.94 934.24 1552.14 934.24C1530.16 934.24 1479.98 900.99 1445.41 874.84L1444.65 875.35C1454.6 902.05 1488.23 997.09 1498.61 1025.23C1501.71 1033.74 1503.84 1040.67 1503.84 1049.17C1503.84 1057.42 1501.07 1063.16 1496.73 1067.37C1492.06 1071.79 1486.78 1074.17 1477.26 1074.17L1436.4 1074.17C1419.9 1074.17 1413.22 1078.09 1403.53 1087.4C1390.05 1100.75 1386.78 1103.77 1375.51 1114.99C1368.58 1121.67 1361.14 1124.69 1353.53 1124.69C1336.39 1124.69 1328.91 1113.67 1325.12 1093.82C1303.27 978.38 1283.24 851.92 1278.26 817.23C1277.97 815.02 1277.33 812 1277.33 809.53C1277.33 806.26 1278.78 803.37 1282.69 803.37C1287.02 803.37 1288.47 807.57 1290.3 815.02C1298.67 848.65 1330.35 969.87 1351.19 1067.63C1352.89 1075.36 1356.42 1078.34 1360.84 1078.34C1364.54 1078.34 1367 1077.32 1371.34 1072.86L1389.8 1054.15C1393.96 1049.94 1395.03 1047.22 1395.03 1042.24C1395.03 1036.76 1393.2 1029.4 1391.5 1021.28C1387.58 1004.02 1378.27 958.22 1370.28 917.49C1368.83 909.79 1368.07 907.28 1368.07 905.07C1368.07 902.56 1370.02 900.35 1372.79 900.35C1374.87 900.35 1376.83 901.54 1378.02 904.82C1384.01 923.02 1415.44 1012.52 1420.71 1028.51C1421.98 1032.42 1423.98 1035.69 1426.7 1037.9C1429.47 1039.99 1432.49 1041.18 1440.18 1041.18L1458.13 1041.18C1463.1 1041.18 1465.31 1040.29 1467.06 1038.71C1468.88 1037.14 1469.65 1034.5 1469.65 1031.48C1469.65 1027.44 1468.08 1022.98 1466.76 1018.94L1407.19 848.65C1330.86 793.03 1237.91 716.46 1155.85 627.46C1073.49 537.96 996.36 430.21 968.5 310.09C965.49 296.87 964.04 290.2 964.04 287.18C964.04 284.41 966 282.58 968.76 282.58C970.97 282.58 972.42 283.39 973.73 286.41C977.01 293.85 980.15 301.04 983.68 308.65C1036.03 424.73 1096.15 515.55 1165.25 594.08C1262.79 704.55 1383.76 794.1 1523.48 888.83L1524.25 888.32C1475.56 754.43 1388.22 582.86 1255.09 388.08C1217.89 333.52 1182.55 292.66 1152.32 261.28C1099.68 207.07 1065.49 188.62 1047.55 171.99C1021.4 148.05 998.74 115.86 985 100.43C955.03 67.05 924.62 33.8 872.92 33.8C831.55 33.8 799.87 56.68 785.45 92.82C781.16 104.09 779.71 112.34 776.18 118.88C772.1 126.58 763.73 139.55 755.73 153.54L793.58 153.54L771.21 191.38C779.97 189.42 799.06 185.21 819.39 185.21C844.77 185.21 872.41 191.89 885.21 217.27C904.85 255.5 901.32 341.52 923.6 402.62C946.1 465.42 988.4 522.78 1040.11 574.48C1041.55 575.89 1042.06 576.95 1042.06 578.65C1042.06 580.86 1040.11 583.11 1037.09 583.11L1034.33 582.18C972.42 536.26 917.18 476.18 894.65 414.78C870.41 349.47 870.41 262.69 856.04 234.03C848.43 218.59 830.78 212.85 806.16 212.85C778.65 212.85 757.99 217.57 729.03 223.82L753.78 176.97L702.84 176.97C714.11 158.51 741.49 111.91 747.48 102.13C750.25 97.67 753.27 85.63 757.18 75.68C770.4 40.99 811.14 0.68 872.92 0.68C936.83 0.68 975.69 41.24 1005.67 73.98C1019.15 88.65 1040.36 118.88 1068.26 145.71C1093.64 169.91 1183.74 221.36 1286.22 374.21ZM1371.09 33.8C1357.31 62.2 1335.58 111.91 1335.58 146.73C1335.58 163.49 1341.62 175.39 1363.09 175.39C1382.61 175.39 1416.24 164.68 1450.39 152.77C1483 141.5 1514.3 129.34 1529.73 124.62L1529.73 157.75C1516.25 161.53 1489.04 171.99 1459.32 182.2C1423.43 194.4 1385.33 206.56 1361.14 206.56C1321.72 206.56 1305.73 183.39 1305.73 152.26C1305.73 150.26 1305.99 148.05 1305.99 146.22L1301.69 146.22C1277.84 183.13 1256.11 220.55 1236.34 242.53L1215.16 219.66C1252.07 175.14 1320.4 67.43 1337.67 33.8L1371.09 33.8ZM1430.23 281.44C1430.23 285.6 1433.93 287.18 1446.35 287.18C1467.18 287.18 1499.5 280.63 1529.73 275.14L1529.73 300.4C1475.81 313.11 1443.46 313.11 1404.08 313.11C1376.06 313.11 1344.89 322.51 1310.2 336.8C1308.5 334.29 1294.21 314.13 1292 311.54C1374.06 266.77 1494.52 217.02 1563.11 191.63L1563.11 225.27C1528.96 237.56 1469.65 261.28 1436.65 275.4C1431.93 277.35 1430.23 278.93 1430.23 281.44ZM676.39 128.28L644.97 174.24L686.64 205.62C627.7 224.08 614.99 237.3 599.05 256.69C594.33 262.17 591.56 264.94 587.9 264.94C584.63 264.94 583.57 262.69 583.57 260.47C583.57 258.65 584.12 256.69 585.14 253.67C590.92 239 608.31 207.32 641.18 197.67L614.99 179.22L634.25 153.28C630.98 153.54 627.32 153.96 622.47 153.96C608.06 153.96 603.08 152.77 589.61 146.99C574.68 140.74 564.48 137.34 550.74 137.34C534.5 137.34 518.51 142.57 505.8 154.73C491.81 168.21 487.6 186.91 482.62 207.88C468.38 266.77 445.46 292.41 408.55 335.73L396.22 350.28C360.38 392.67 334.7 447.77 315.73 488.59L311.52 497.39C305.78 497.1 302.25 497.1 297.79 497.1C289.03 497.1 281.04 497.65 275.38 498.29C309.31 415.59 329.72 378.42 368.63 332.33C398.05 297.64 407.49 288.62 420.46 270.17C435.77 248.31 442.7 224.76 448.48 203.16C455.92 175.39 462.34 150.01 482.92 131.04C500.82 114.55 522.72 105.91 546.66 105.91C566.18 105.91 577.44 110.38 599.56 120.58C615.8 128.03 628.21 128.28 646.97 128.28L676.39 128.28ZM134.13 229.05L134.13 225.27C123.41 223.31 113.72 212.85 113.72 205.11C64.73 205.11 31.61 157.75 31.61 127.51L31.87 123.05C11.46 108.68 0.74 92.44 0.74 68.75C0.74 30.78 31.36 0.68 68.82 0.68C88.46 0.68 102.45 7.86 115.04 19.39C120.39 18.62 126.43 18.37 131.41 18.37C174.31 18.37 200.5 48.17 212.15 82.87C226.44 83.68 243.45 94.65 246.21 111.27L250.38 111.27C250.38 63.65 289.28 30.27 319.26 30.27C329.47 15.6 347.41 0.68 374.88 0.68C393.88 0.68 410.26 8.16 421.78 19.39C435 32.1 442.44 49.49 442.44 66.5C442.44 86.14 433.17 99.37 425.05 107.11C427.65 112.08 428.2 117.31 428.2 123.31C428.2 146.73 410.51 176.2 381.3 186.15C377.64 214.55 347.67 231.56 317.05 231.56C310.2 231.56 307.74 229.35 307.74 225.78C307.74 219.27 324.49 219.27 340.99 203.16C350.94 193.85 356.98 181.17 360.38 167.14C385.64 158.64 399.5 142.31 399.5 119.14C399.5 113.1 398.05 106.81 396.22 99.62C405.28 93.07 411.02 82.36 411.02 69.9C411.02 48.73 394.52 32.74 373.86 32.74C358.68 32.74 345.96 41.5 340.22 54.21C301.96 54.21 274.87 85.38 274.87 121.35C264.41 130.24 259.18 141.5 256.16 155.49C254.59 162.98 253.4 168.46 248.42 168.46C243.83 168.46 242.68 162.47 241.36 155.24C238.73 141.25 229.46 107.62 189.79 104.09C183.49 65.99 150.37 46.47 119.46 46.47C113.21 46.47 106.53 47.03 100.75 48.73C93.95 39.54 83.19 33.55 70.77 33.55C50.07 33.55 33.87 50.04 33.87 70.71C33.87 86.4 43.13 99.62 57.04 105.11L57.04 107.62C57.04 145.03 87.53 178.41 129.15 178.41C139.66 204.6 160.32 215.32 177.71 218.59C181.54 219.53 184.81 220.04 186.77 221.1C188.98 222.5 189.79 224.5 189.79 226.59C189.79 229.05 188.72 231.31 186.51 232.45C184.26 233.52 181.28 233.77 177.33 234.32C158.62 236.79 145.4 246.23 139.91 254.99C134.94 254.48 130.22 254.18 125.62 254.18C89.23 254.18 60.02 272.63 57.55 299.89C43.69 305.12 33.87 318.98 33.87 334.29C33.87 356.4 49.17 371.58 71.03 371.58C80.59 371.58 90.54 367.92 98.54 359.16C108.49 365.71 118.18 369.11 130.47 369.11C147.35 369.11 161.89 359.97 173.8 342.66C198.04 342.66 221.72 337.43 237.15 323.32C244.13 317.03 244.64 313.37 248.42 313.37C251.44 313.37 252.89 315.83 252.89 318.98C252.89 322 251.82 326.04 249.1 331.27C237.96 352.23 217 368.18 192.81 368.18C190.55 368.18 188.72 368.18 186.51 367.92C171.59 389.65 150.37 396.32 131.41 396.32C122.22 396.32 113.46 394.88 106.53 392.54C97.22 399.6 83.74 404.83 70.52 404.83C30.72 404.83 0.74 375.66 0.74 334.54C0.74 314.01 13.71 291.64 33.87 283.39C33.87 261.54 62.52 229.05 129.96 229.05L134.13 229.05ZM870.15 1520.46C870.15 1505.41 854.72 1500.18 837.33 1495.71L774.19 1479.77C745.02 1472.29 724.99 1461.83 710.83 1446.65C698.8 1433.68 691.31 1417.22 691.31 1396.77C691.31 1339.58 740.94 1303.74 816.37 1303.74C858.25 1303.74 892.95 1316.41 915.06 1335.41C931.55 1349.4 940.87 1367.86 940.87 1382.27C940.87 1388.56 939.55 1392.48 937.34 1394.94C934.57 1397.96 931.04 1398.77 926.07 1398.77L894.9 1398.77C887.21 1398.77 882.23 1398.77 877.89 1396.51C870.71 1392.73 872.41 1387.76 863.22 1378.06C852.25 1366.54 835.08 1362.37 816.37 1362.37C784.43 1362.37 770.66 1374.79 770.66 1390.26C770.66 1406.21 782.86 1410.93 808.63 1417.48L871.22 1433.42C902.64 1441.54 921.09 1453.07 934.06 1469.82C944.27 1483.04 949.75 1499.29 949.75 1518.38C949.75 1592.19 873.43 1614.98 818.32 1614.98C762.28 1614.98 718.57 1592.45 697.61 1564.3C688.59 1551.88 684.64 1538.15 684.64 1527.14C684.64 1522.71 685.45 1518.38 688.04 1515.23C690.42 1512.21 694.08 1510 701.43 1510L735.71 1510C742 1510 746.72 1510.26 750.5 1512.64C756.8 1516.17 758.24 1520.71 762.28 1527.14C767 1534.62 773.68 1540.1 781.41 1543.89C792.39 1549.42 805.91 1551.88 818.83 1551.88C845.28 1551.88 870.15 1543.89 870.15 1520.46ZM254.59 220.55C269.64 236.79 304.46 277.91 325.68 320.81C320.71 326.04 308.25 342.92 304.21 349.72C281.04 295.3 256.42 254.18 241.87 233.01L254.59 220.55ZM619.84 586.39C654.66 561.9 690.42 559.13 719.34 559.13C736.77 559.13 757.18 561.64 778.65 564.4C795.96 566.62 811.65 568.19 830.48 568.19C868.2 568.19 906.17 554.46 922.67 547.23C927.39 553.01 935.38 560.71 941.8 566.23C933.81 571.21 883.12 598.8 831.29 598.8C808.37 598.8 786.64 596.04 767.94 593.57C751.31 591.36 733.49 589.36 716.06 589.36C697.1 589.36 658.74 594.89 635.02 606.29L619.84 586.39ZM471.91 660.71C471.91 670.66 477.65 677.85 500.82 677.85C541.05 677.85 584.38 658.25 624.3 638.73C627.32 637.28 630.98 635.97 634.25 635.97C639.48 635.97 642.76 637.54 646.67 643.19L653.22 652.21C606.74 677.85 548.49 705.36 493.89 705.36C456.86 705.36 440.23 687.8 440.23 665.43C440.23 626.27 508.82 588.09 570.64 564.4L586.59 585.07C548.49 600.12 471.91 632.69 471.91 660.71ZM1066.81 1370.62L1066.81 1502.56C1066.81 1518.12 1071.02 1529.9 1079.27 1537.6C1086.2 1544.14 1096.41 1548.1 1111.2 1548.1L1114.6 1548.1C1120.34 1548.1 1124.68 1549.8 1128.08 1552.52C1131.61 1555.79 1133.82 1560.13 1133.82 1566.81L1133.82 1590.74C1133.82 1597.42 1131.61 1601.76 1128.08 1605.03C1124.68 1607.88 1120.34 1609.45 1114.6 1609.45L1091.18 1609.45C1053.59 1609.45 1032.11 1599.25 1015.62 1583.05C997.67 1565.49 987.98 1543.38 987.98 1508.17L987.98 1370.62L972.67 1370.62C966.93 1370.62 962.47 1369.05 959.06 1366.16C955.54 1363.01 953.96 1358.59 953.96 1351.91L953.96 1332.91C953.96 1326.23 955.54 1321.94 959.06 1318.53C962.47 1315.9 966.93 1314.2 972.67 1314.2L987.98 1314.2L987.98 1224.44C987.98 1217.21 990.23 1211.98 993.51 1207.81C997.67 1202.97 1003.46 1199.82 1011.96 1199.82L1043.13 1199.82C1051.63 1199.82 1057.5 1202.97 1061.58 1207.81C1064.86 1211.98 1067.19 1217.21 1067.19 1224.44L1067.19 1314.2L1116.94 1314.2C1122.85 1314.2 1127.15 1315.9 1130.42 1318.53C1134.12 1321.94 1135.69 1326.23 1135.69 1332.91L1135.69 1351.91C1135.69 1358.59 1134.12 1363.01 1130.42 1366.16C1127.15 1369.05 1122.85 1370.62 1116.94 1370.62L1066.81 1370.62ZM1298.67 1261.6C1293.7 1261.6 1290.04 1260.15 1287.66 1257.39C1285.58 1255.18 1284.52 1252.67 1284.52 1247.19L1284.52 1232.94C1284.52 1227.97 1285.58 1224.44 1288.21 1221.67C1290.3 1219.17 1293.44 1217.21 1299.74 1216.7L1519.65 1194.84C1527.01 1194.04 1531.43 1193.53 1535.9 1193.53C1541.38 1193.53 1546.36 1195.48 1549.37 1198.76C1552.65 1202.29 1554.6 1207.26 1554.6 1217.21L1554.6 1242.89C1554.6 1249.4 1552.9 1253.86 1549.37 1257.14C1545.97 1259.9 1541.68 1261.6 1535.9 1261.6L1298.67 1261.6ZM1158.06 701.53C1121.15 784.91 1055.8 857.71 979.22 900.74C944.01 920.51 912.08 934.24 845.83 934.24L716.61 934.24C671.97 934.24 651.64 938.96 630.72 944.19C603.59 951.12 584.89 958.22 555.72 958.22C503.97 958.22 460.13 930.71 442.7 910.81L320.71 1006.23C283.25 1035.69 249.1 1041.43 212.15 1041.43L205.22 1041.43L205.22 1031.91C205.22 1024.94 206.92 1020 210.2 1016.73C213.22 1013.71 217 1012.01 225.63 1012.01C245.66 1012.01 268.58 1007.03 287.03 996.28C304.97 985.82 317.31 972.08 317.31 937.39C317.31 893.55 302.76 877.86 244.13 858.34L273.04 841.21C315.73 858.34 343.88 872.89 343.88 933.48C343.88 938.45 343.88 943.43 343.33 948.91L344.65 949.72C367.31 931.77 475.06 852.18 483.82 845.93L498.99 865.95L468.64 889.89C484.88 907.03 518.51 924.97 554.91 924.97C579.4 924.97 594.84 918.68 619.07 912.26C641.69 906.52 670.65 900.48 716.61 900.48L845.28 900.48C904.85 900.48 932.36 889.09 962.98 871.82C1027.4 835.17 1090.24 771.82 1131.61 684.65C1139.35 689.88 1148.37 695.41 1158.06 701.53ZM0.74 903.75C0.74 862.38 13.71 836.23 65.29 814.76C80.08 808.47 143.82 780.87 178.01 767.65L169.63 758.89C128.39 714.5 107.17 691.88 107.17 654.67C107.17 637.28 112.15 628.52 112.15 621.17C112.15 611.26 102.96 603.52 95.26 591.62C88.16 580.35 82.04 567.38 82.04 557.18C82.04 541.74 88.46 532.43 88.46 518.57C88.46 508.49 82.04 503.01 82.04 491.87C82.04 453.64 180.09 424.73 262.58 424.73L251.19 450.41C238.86 450.41 125.24 462.44 125.24 493.82C125.24 520.52 196.72 548.16 224.48 548.16C235.88 548.16 246.59 542.93 258.88 537.96C269.9 533.49 281.55 529.33 297.53 529.33C332.61 529.33 399.75 555.6 441.93 580.09L436.96 589.11C433.94 594.89 429.22 597.74 423.22 597.74C420.72 597.74 418.25 597.1 416 596.34C377.64 580.09 334.19 563.09 298.98 563.09C284.05 563.09 273.04 567.38 262.03 571.72C250.38 576.44 238.35 581.41 223.42 581.41C196.21 581.41 145.65 560.71 124.18 540.98C121.71 546.72 120.14 551.44 120.14 557.98C120.14 589.36 179.03 638.22 234.43 652.72L239.66 678.91C201.18 674.32 169.33 662.16 143.82 642.26C141.06 647.23 140.17 652.72 140.17 657.44C140.17 668.45 145.65 677.85 148.8 682.57C155.09 692.52 184.81 726.28 189.53 731.51C201.95 745.92 210.45 748.39 220.66 748.39C229.46 748.39 236.39 746.18 243.83 744.22C250.12 742.65 257.61 740.95 266.75 740.95C287.58 740.95 312.46 750.64 340.22 767.14C368.07 783.59 395.84 804.81 416 828.49L392.57 846.44C374.11 825.77 350.68 807.96 328.4 794.73C301.96 778.92 280.78 771.05 262.33 771.05C245.66 771.05 230.9 776.79 214.92 783.59C160.58 806.77 87.53 836.49 72.73 843.16C35.82 859.66 34.89 880.07 34.63 902.99C34.63 912.81 34.89 921.95 34.89 929.95C34.89 941.72 32.42 954.14 11.84 954.14L1.89 954.14C0.74 937.94 0.74 919.74 0.74 903.75ZM357.36 100.13C340.48 126.32 307.74 178.16 297.53 193.34L282.61 184.19C292.3 161.28 304.08 140.48 318.2 124.75C328.02 113.36 337.46 104.34 347.92 95.16C350.43 93.33 351.7 91.63 354.34 91.63C356.98 91.63 358.93 93.88 358.93 96.09C358.93 97.16 358.42 98.6 357.36 100.13ZM0.74 1226.9C0.74 1217.76 2.95 1212.49 6.74 1207.81C11.46 1202.29 18.13 1198.76 28.64 1198.76L73.79 1198.76C87.53 1198.76 94.71 1201.26 101.56 1205.05C108.49 1209.22 113.72 1214.74 118.44 1222.74C124.99 1233.96 261.9 1478.07 261.9 1478.07L263.35 1478.07L263.35 1227.97C263.35 1218.78 265.6 1213.68 269.39 1208.96C274.1 1203.48 280.78 1199.82 291.24 1199.82L919.39 1199.82C925.3 1199.82 929.6 1201.52 932.87 1204.24C936.53 1207.51 938.23 1211.98 938.23 1218.53L938.23 1242.89C938.23 1249.4 936.53 1253.86 932.87 1257.14C929.6 1259.9 925.3 1261.6 919.39 1261.6L343.75 1261.6L343.75 1581.35C343.75 1590.49 341.63 1595.72 337.72 1600.44C333 1605.92 326.45 1609.45 315.99 1609.45L272.11 1609.45C252.89 1609.45 239.41 1599.5 231.41 1586.32C225.63 1577.01 83.36 1325.21 83.36 1325.21L82.04 1325.21L82.04 1581.35C82.04 1590.49 79.79 1595.72 76 1600.44C71.28 1605.92 64.73 1609.45 54.15 1609.45L28.64 1609.45C18.13 1609.45 11.46 1605.92 6.74 1600.44C2.95 1595.72 0.74 1590.49 0.74 1581.35L0.74 1226.9ZM643.27 1483.04L451.63 1483.04C453.46 1517.44 480.29 1548.86 521.53 1548.86C549.04 1548.86 567.88 1538.91 580.85 1519.95C585.14 1513.27 591.31 1510 600.07 1510L644.46 1510C650.24 1510 653.51 1511.7 655.72 1514.46C657.94 1516.93 658.74 1520.2 658.74 1524.12C658.74 1535.38 649.69 1553.84 638.29 1567.06C612.52 1597.55 567.37 1614.98 521.28 1614.98C428.96 1614.98 371.35 1541.17 371.35 1457.11C371.35 1378.32 425.05 1303.74 520.72 1303.74C572.73 1303.74 609.76 1323.25 634 1352.17C657.68 1380.83 668.95 1418.24 668.95 1454.38C668.95 1466.16 666.74 1472.58 662.02 1477C657.94 1481.09 651.94 1483.04 643.27 1483.04ZM589.86 1424.41C586.33 1390.52 559.63 1365.14 521.02 1365.14C481.6 1365.14 455.67 1390.52 452.14 1424.41L589.86 1424.41ZM101.81 314.13C135.83 287.81 165.55 277.35 206.54 270.42L211.52 286.92L110.7 321.06C107.17 322.51 105.47 323.32 103.51 323.32C100.49 323.32 99.18 320.81 99.18 318.85C99.18 317.03 99.98 315.83 101.81 314.13ZM198.29 158.94L186.77 172.12C172.48 160.21 126.13 121.35 102.2 101.07C99.69 98.86 99.18 97.41 99.18 95.71C99.18 93.88 100.49 91.63 103.51 91.63L107.17 92.44C127.45 100.81 144.89 110.38 160.32 122.29C173.29 132.11 185.96 144.27 198.29 158.94Z" />
			</g>
		</g>
	</g>
</svg>